<mxfile host="app.diagrams.net" modified="2020-09-27T07:52:23.647Z" agent="5.0 (Windows NT 10.0; WOW64) AppleWebKit/537.36 (KHTML, like Gecko) Chrome/78.0.3904.108 Safari/537.36" etag="WVdHmLtoyIiGYkN-OYz-" version="13.7.5" type="github">
  <diagram name="Page-1" id="efa7a0a1-bf9b-a30e-e6df-94a7791c09e9">
    <mxGraphModel dx="1424" dy="1853" grid="1" gridSize="10" guides="1" tooltips="1" connect="1" arrows="1" fold="1" page="1" pageScale="1" pageWidth="826" pageHeight="1169" background="#ffffff" math="0" shadow="0">
      <root>
        <mxCell id="0" />
        <mxCell id="1" parent="0" />
        <mxCell id="qIVOGHb0BJN2lnLGOt8N-184" value="SKU" style="shape=table;startSize=40;container=1;collapsible=1;childLayout=tableLayout;fixedRows=1;rowLines=0;fontStyle=1;align=center;resizeLast=1;fillColor=#dae8fc;strokeColor=#6c8ebf;" parent="1" vertex="1">
          <mxGeometry x="890" y="350" width="200" height="250" as="geometry" />
        </mxCell>
        <mxCell id="qIVOGHb0BJN2lnLGOt8N-185" value="" style="shape=partialRectangle;collapsible=0;dropTarget=0;pointerEvents=0;top=0;left=0;bottom=1;right=0;points=[[0,0.5],[1,0.5]];portConstraint=eastwest;fillColor=#CCFFCC;" parent="qIVOGHb0BJN2lnLGOt8N-184" vertex="1">
          <mxGeometry y="40" width="200" height="30" as="geometry" />
        </mxCell>
        <mxCell id="qIVOGHb0BJN2lnLGOt8N-186" value="PK" style="shape=partialRectangle;connectable=0;top=0;left=0;bottom=0;right=0;fontStyle=1;overflow=hidden;fillColor=#CCFFCC;" parent="qIVOGHb0BJN2lnLGOt8N-185" vertex="1">
          <mxGeometry width="30" height="30" as="geometry" />
        </mxCell>
        <mxCell id="qIVOGHb0BJN2lnLGOt8N-187" value="SKU_ID" style="shape=partialRectangle;connectable=0;top=0;left=0;bottom=0;right=0;align=left;spacingLeft=6;fontStyle=5;overflow=hidden;fillColor=#CCFFCC;" parent="qIVOGHb0BJN2lnLGOt8N-185" vertex="1">
          <mxGeometry x="30" width="170" height="30" as="geometry" />
        </mxCell>
        <mxCell id="qIVOGHb0BJN2lnLGOt8N-188" value="" style="shape=partialRectangle;collapsible=0;dropTarget=0;pointerEvents=0;top=0;left=0;bottom=0;right=0;points=[[0,0.5],[1,0.5]];portConstraint=eastwest;fillColor=#CCFFCC;" parent="qIVOGHb0BJN2lnLGOt8N-184" vertex="1">
          <mxGeometry y="70" width="200" height="30" as="geometry" />
        </mxCell>
        <mxCell id="qIVOGHb0BJN2lnLGOt8N-189" value="" style="shape=partialRectangle;connectable=0;top=0;left=0;bottom=0;right=0;editable=1;overflow=hidden;fillColor=#CCFFCC;" parent="qIVOGHb0BJN2lnLGOt8N-188" vertex="1">
          <mxGeometry width="30" height="30" as="geometry" />
        </mxCell>
        <mxCell id="qIVOGHb0BJN2lnLGOt8N-190" value="商品ID&#xa;" style="shape=partialRectangle;connectable=0;top=0;left=0;bottom=0;right=0;align=left;spacingLeft=6;overflow=hidden;fillColor=#CCFFCC;" parent="qIVOGHb0BJN2lnLGOt8N-188" vertex="1">
          <mxGeometry x="30" width="170" height="30" as="geometry" />
        </mxCell>
        <mxCell id="qIVOGHb0BJN2lnLGOt8N-191" value="" style="shape=partialRectangle;collapsible=0;dropTarget=0;pointerEvents=0;top=0;left=0;bottom=0;right=0;points=[[0,0.5],[1,0.5]];portConstraint=eastwest;fillColor=#CCFFCC;" parent="qIVOGHb0BJN2lnLGOt8N-184" vertex="1">
          <mxGeometry y="100" width="200" height="30" as="geometry" />
        </mxCell>
        <mxCell id="qIVOGHb0BJN2lnLGOt8N-192" value="" style="shape=partialRectangle;connectable=0;top=0;left=0;bottom=0;right=0;editable=1;overflow=hidden;fillColor=#CCFFCC;" parent="qIVOGHb0BJN2lnLGOt8N-191" vertex="1">
          <mxGeometry width="30" height="30" as="geometry" />
        </mxCell>
        <mxCell id="qIVOGHb0BJN2lnLGOt8N-193" value="价格&#xa;" style="shape=partialRectangle;connectable=0;top=0;left=0;bottom=0;right=0;align=left;spacingLeft=6;overflow=hidden;fillColor=#CCFFCC;" parent="qIVOGHb0BJN2lnLGOt8N-191" vertex="1">
          <mxGeometry x="30" width="170" height="30" as="geometry" />
        </mxCell>
        <mxCell id="qIVOGHb0BJN2lnLGOt8N-194" value="" style="shape=partialRectangle;collapsible=0;dropTarget=0;pointerEvents=0;top=0;left=0;bottom=0;right=0;points=[[0,0.5],[1,0.5]];portConstraint=eastwest;fillColor=#CCFFCC;" parent="qIVOGHb0BJN2lnLGOt8N-184" vertex="1">
          <mxGeometry y="130" width="200" height="30" as="geometry" />
        </mxCell>
        <mxCell id="qIVOGHb0BJN2lnLGOt8N-195" value="" style="shape=partialRectangle;connectable=0;top=0;left=0;bottom=0;right=0;editable=1;overflow=hidden;fillColor=#CCFFCC;" parent="qIVOGHb0BJN2lnLGOt8N-194" vertex="1">
          <mxGeometry width="30" height="30" as="geometry" />
        </mxCell>
        <mxCell id="qIVOGHb0BJN2lnLGOt8N-196" value="库存" style="shape=partialRectangle;connectable=0;top=0;left=0;bottom=0;right=0;align=left;spacingLeft=6;overflow=hidden;fillColor=#CCFFCC;" parent="qIVOGHb0BJN2lnLGOt8N-194" vertex="1">
          <mxGeometry x="30" width="170" height="30" as="geometry" />
        </mxCell>
        <mxCell id="qIVOGHb0BJN2lnLGOt8N-200" value="" style="shape=partialRectangle;collapsible=0;dropTarget=0;pointerEvents=0;top=0;left=0;bottom=0;right=0;points=[[0,0.5],[1,0.5]];portConstraint=eastwest;fillColor=#CCFFCC;" parent="qIVOGHb0BJN2lnLGOt8N-184" vertex="1">
          <mxGeometry y="160" width="200" height="30" as="geometry" />
        </mxCell>
        <mxCell id="qIVOGHb0BJN2lnLGOt8N-201" value="" style="shape=partialRectangle;connectable=0;top=0;left=0;bottom=0;right=0;editable=1;overflow=hidden;fillColor=#CCFFCC;" parent="qIVOGHb0BJN2lnLGOt8N-200" vertex="1">
          <mxGeometry width="30" height="30" as="geometry" />
        </mxCell>
        <mxCell id="qIVOGHb0BJN2lnLGOt8N-202" value="创建人" style="shape=partialRectangle;connectable=0;top=0;left=0;bottom=0;right=0;align=left;spacingLeft=6;overflow=hidden;fillColor=#CCFFCC;labelBorderColor=none;" parent="qIVOGHb0BJN2lnLGOt8N-200" vertex="1">
          <mxGeometry x="30" width="170" height="30" as="geometry" />
        </mxCell>
        <mxCell id="qIVOGHb0BJN2lnLGOt8N-203" value="" style="shape=partialRectangle;collapsible=0;dropTarget=0;pointerEvents=0;top=0;left=0;bottom=0;right=0;points=[[0,0.5],[1,0.5]];portConstraint=eastwest;fillColor=#CCFFCC;" parent="qIVOGHb0BJN2lnLGOt8N-184" vertex="1">
          <mxGeometry y="190" width="200" height="30" as="geometry" />
        </mxCell>
        <mxCell id="qIVOGHb0BJN2lnLGOt8N-204" value="" style="shape=partialRectangle;connectable=0;top=0;left=0;bottom=0;right=0;editable=1;overflow=hidden;fillColor=#CCFFCC;" parent="qIVOGHb0BJN2lnLGOt8N-203" vertex="1">
          <mxGeometry width="30" height="30" as="geometry" />
        </mxCell>
        <mxCell id="qIVOGHb0BJN2lnLGOt8N-205" value="创建时间" style="shape=partialRectangle;connectable=0;top=0;left=0;bottom=0;right=0;align=left;spacingLeft=6;overflow=hidden;fillColor=#CCFFCC;" parent="qIVOGHb0BJN2lnLGOt8N-203" vertex="1">
          <mxGeometry x="30" width="170" height="30" as="geometry" />
        </mxCell>
        <mxCell id="qIVOGHb0BJN2lnLGOt8N-197" value="" style="shape=partialRectangle;collapsible=0;dropTarget=0;pointerEvents=0;top=0;left=0;bottom=0;right=0;points=[[0,0.5],[1,0.5]];portConstraint=eastwest;fillColor=#CCFFCC;" parent="qIVOGHb0BJN2lnLGOt8N-184" vertex="1">
          <mxGeometry y="220" width="200" height="30" as="geometry" />
        </mxCell>
        <mxCell id="qIVOGHb0BJN2lnLGOt8N-198" value="" style="shape=partialRectangle;connectable=0;top=0;left=0;bottom=0;right=0;editable=1;overflow=hidden;fillColor=#CCFFCC;" parent="qIVOGHb0BJN2lnLGOt8N-197" vertex="1">
          <mxGeometry width="30" height="30" as="geometry" />
        </mxCell>
        <mxCell id="qIVOGHb0BJN2lnLGOt8N-199" value="" style="shape=partialRectangle;connectable=0;top=0;left=0;bottom=0;right=0;align=left;spacingLeft=6;overflow=hidden;fillColor=#CCFFCC;" parent="qIVOGHb0BJN2lnLGOt8N-197" vertex="1">
          <mxGeometry x="30" width="170" height="30" as="geometry" />
        </mxCell>
        <mxCell id="qIVOGHb0BJN2lnLGOt8N-303" style="edgeStyle=none;rounded=1;orthogonalLoop=1;jettySize=auto;html=1;entryX=0;entryY=0.5;entryDx=0;entryDy=0;startSize=40;" parent="qIVOGHb0BJN2lnLGOt8N-184" source="qIVOGHb0BJN2lnLGOt8N-194" target="qIVOGHb0BJN2lnLGOt8N-194" edge="1">
          <mxGeometry relative="1" as="geometry" />
        </mxCell>
        <mxCell id="qIVOGHb0BJN2lnLGOt8N-162" value="商品" style="shape=table;startSize=40;container=1;collapsible=1;childLayout=tableLayout;fixedRows=1;rowLines=0;fontStyle=1;align=center;resizeLast=1;strokeColor=#6c8ebf;fillColor=#CCFFCC;" parent="1" vertex="1">
          <mxGeometry x="1310" y="350" width="200" height="280" as="geometry" />
        </mxCell>
        <mxCell id="qIVOGHb0BJN2lnLGOt8N-163" value="" style="shape=partialRectangle;collapsible=0;dropTarget=0;pointerEvents=0;top=0;left=0;bottom=1;right=0;points=[[0,0.5],[1,0.5]];portConstraint=eastwest;fillColor=#CCFFCC;" parent="qIVOGHb0BJN2lnLGOt8N-162" vertex="1">
          <mxGeometry y="40" width="200" height="30" as="geometry" />
        </mxCell>
        <mxCell id="qIVOGHb0BJN2lnLGOt8N-164" value="PK" style="shape=partialRectangle;connectable=0;top=0;left=0;bottom=0;right=0;fontStyle=1;overflow=hidden;fillColor=#CCFFCC;" parent="qIVOGHb0BJN2lnLGOt8N-163" vertex="1">
          <mxGeometry width="30" height="30" as="geometry" />
        </mxCell>
        <mxCell id="qIVOGHb0BJN2lnLGOt8N-165" value="商品ID" style="shape=partialRectangle;connectable=0;top=0;left=0;bottom=0;right=0;align=left;spacingLeft=6;fontStyle=5;overflow=hidden;fillColor=#CCFFCC;" parent="qIVOGHb0BJN2lnLGOt8N-163" vertex="1">
          <mxGeometry x="30" width="170" height="30" as="geometry" />
        </mxCell>
        <mxCell id="qIVOGHb0BJN2lnLGOt8N-166" value="" style="shape=partialRectangle;collapsible=0;dropTarget=0;pointerEvents=0;top=0;left=0;bottom=0;right=0;points=[[0,0.5],[1,0.5]];portConstraint=eastwest;fillColor=#CCFFCC;" parent="qIVOGHb0BJN2lnLGOt8N-162" vertex="1">
          <mxGeometry y="70" width="200" height="30" as="geometry" />
        </mxCell>
        <mxCell id="qIVOGHb0BJN2lnLGOt8N-167" value="" style="shape=partialRectangle;connectable=0;top=0;left=0;bottom=0;right=0;editable=1;overflow=hidden;fillColor=#CCFFCC;" parent="qIVOGHb0BJN2lnLGOt8N-166" vertex="1">
          <mxGeometry width="30" height="30" as="geometry" />
        </mxCell>
        <mxCell id="qIVOGHb0BJN2lnLGOt8N-168" value="商品名称&#xa;" style="shape=partialRectangle;connectable=0;top=0;left=0;bottom=0;right=0;align=left;spacingLeft=6;overflow=hidden;fillColor=#CCFFCC;" parent="qIVOGHb0BJN2lnLGOt8N-166" vertex="1">
          <mxGeometry x="30" width="170" height="30" as="geometry" />
        </mxCell>
        <mxCell id="qIVOGHb0BJN2lnLGOt8N-169" value="" style="shape=partialRectangle;collapsible=0;dropTarget=0;pointerEvents=0;top=0;left=0;bottom=0;right=0;points=[[0,0.5],[1,0.5]];portConstraint=eastwest;fillColor=#CCFFCC;" parent="qIVOGHb0BJN2lnLGOt8N-162" vertex="1">
          <mxGeometry y="100" width="200" height="30" as="geometry" />
        </mxCell>
        <mxCell id="qIVOGHb0BJN2lnLGOt8N-170" value="" style="shape=partialRectangle;connectable=0;top=0;left=0;bottom=0;right=0;editable=1;overflow=hidden;fillColor=#CCFFCC;" parent="qIVOGHb0BJN2lnLGOt8N-169" vertex="1">
          <mxGeometry width="30" height="30" as="geometry" />
        </mxCell>
        <mxCell id="qIVOGHb0BJN2lnLGOt8N-171" value="商品简介&#xa;" style="shape=partialRectangle;connectable=0;top=0;left=0;bottom=0;right=0;align=left;spacingLeft=6;overflow=hidden;fillColor=#CCFFCC;" parent="qIVOGHb0BJN2lnLGOt8N-169" vertex="1">
          <mxGeometry x="30" width="170" height="30" as="geometry" />
        </mxCell>
        <mxCell id="fLH93Ka3nVB979V-HaJ9-27" value="" style="shape=partialRectangle;collapsible=0;dropTarget=0;pointerEvents=0;top=0;left=0;bottom=0;right=0;points=[[0,0.5],[1,0.5]];portConstraint=eastwest;fillColor=#CCFFCC;" vertex="1" parent="qIVOGHb0BJN2lnLGOt8N-162">
          <mxGeometry y="130" width="200" height="30" as="geometry" />
        </mxCell>
        <mxCell id="fLH93Ka3nVB979V-HaJ9-28" value="" style="shape=partialRectangle;connectable=0;top=0;left=0;bottom=0;right=0;editable=1;overflow=hidden;fillColor=#CCFFCC;" vertex="1" parent="fLH93Ka3nVB979V-HaJ9-27">
          <mxGeometry width="30" height="30" as="geometry" />
        </mxCell>
        <mxCell id="fLH93Ka3nVB979V-HaJ9-29" value="商品图片" style="shape=partialRectangle;connectable=0;top=0;left=0;bottom=0;right=0;align=left;spacingLeft=6;overflow=hidden;fillColor=#CCFFCC;" vertex="1" parent="fLH93Ka3nVB979V-HaJ9-27">
          <mxGeometry x="30" width="170" height="30" as="geometry" />
        </mxCell>
        <mxCell id="qIVOGHb0BJN2lnLGOt8N-172" value="" style="shape=partialRectangle;collapsible=0;dropTarget=0;pointerEvents=0;top=0;left=0;bottom=0;right=0;points=[[0,0.5],[1,0.5]];portConstraint=eastwest;fillColor=#CCFFCC;" parent="qIVOGHb0BJN2lnLGOt8N-162" vertex="1">
          <mxGeometry y="160" width="200" height="30" as="geometry" />
        </mxCell>
        <mxCell id="qIVOGHb0BJN2lnLGOt8N-173" value="" style="shape=partialRectangle;connectable=0;top=0;left=0;bottom=0;right=0;editable=1;overflow=hidden;fillColor=#CCFFCC;" parent="qIVOGHb0BJN2lnLGOt8N-172" vertex="1">
          <mxGeometry width="30" height="30" as="geometry" />
        </mxCell>
        <mxCell id="qIVOGHb0BJN2lnLGOt8N-174" value="商品状态" style="shape=partialRectangle;connectable=0;top=0;left=0;bottom=0;right=0;align=left;spacingLeft=6;overflow=hidden;fillColor=#CCFFCC;" parent="qIVOGHb0BJN2lnLGOt8N-172" vertex="1">
          <mxGeometry x="30" width="170" height="30" as="geometry" />
        </mxCell>
        <mxCell id="qIVOGHb0BJN2lnLGOt8N-178" value="" style="shape=partialRectangle;collapsible=0;dropTarget=0;pointerEvents=0;top=0;left=0;bottom=0;right=0;points=[[0,0.5],[1,0.5]];portConstraint=eastwest;fillColor=#CCFFCC;" parent="qIVOGHb0BJN2lnLGOt8N-162" vertex="1">
          <mxGeometry y="190" width="200" height="30" as="geometry" />
        </mxCell>
        <mxCell id="qIVOGHb0BJN2lnLGOt8N-179" value="" style="shape=partialRectangle;connectable=0;top=0;left=0;bottom=0;right=0;editable=1;overflow=hidden;fillColor=#CCFFCC;" parent="qIVOGHb0BJN2lnLGOt8N-178" vertex="1">
          <mxGeometry width="30" height="30" as="geometry" />
        </mxCell>
        <mxCell id="qIVOGHb0BJN2lnLGOt8N-180" value="创建人" style="shape=partialRectangle;connectable=0;top=0;left=0;bottom=0;right=0;align=left;spacingLeft=6;overflow=hidden;fillColor=#CCFFCC;" parent="qIVOGHb0BJN2lnLGOt8N-178" vertex="1">
          <mxGeometry x="30" width="170" height="30" as="geometry" />
        </mxCell>
        <mxCell id="qIVOGHb0BJN2lnLGOt8N-181" value="" style="shape=partialRectangle;collapsible=0;dropTarget=0;pointerEvents=0;top=0;left=0;bottom=0;right=0;points=[[0,0.5],[1,0.5]];portConstraint=eastwest;fillColor=#CCFFCC;" parent="qIVOGHb0BJN2lnLGOt8N-162" vertex="1">
          <mxGeometry y="220" width="200" height="30" as="geometry" />
        </mxCell>
        <mxCell id="qIVOGHb0BJN2lnLGOt8N-182" value="" style="shape=partialRectangle;connectable=0;top=0;left=0;bottom=0;right=0;editable=1;overflow=hidden;fillColor=#CCFFCC;" parent="qIVOGHb0BJN2lnLGOt8N-181" vertex="1">
          <mxGeometry width="30" height="30" as="geometry" />
        </mxCell>
        <mxCell id="qIVOGHb0BJN2lnLGOt8N-183" value="创建时间" style="shape=partialRectangle;connectable=0;top=0;left=0;bottom=0;right=0;align=left;spacingLeft=6;overflow=hidden;fillColor=#CCFFCC;" parent="qIVOGHb0BJN2lnLGOt8N-181" vertex="1">
          <mxGeometry x="30" width="170" height="30" as="geometry" />
        </mxCell>
        <mxCell id="qIVOGHb0BJN2lnLGOt8N-320" value="" style="shape=partialRectangle;collapsible=0;dropTarget=0;pointerEvents=0;fillColor=none;top=0;left=0;bottom=0;right=0;points=[[0,0.5],[1,0.5]];portConstraint=eastwest;strokeWidth=1;align=left;" parent="qIVOGHb0BJN2lnLGOt8N-162" vertex="1">
          <mxGeometry y="250" width="200" height="30" as="geometry" />
        </mxCell>
        <mxCell id="qIVOGHb0BJN2lnLGOt8N-321" value="" style="shape=partialRectangle;connectable=0;top=0;left=0;bottom=0;right=0;editable=1;overflow=hidden;fillColor=#CCFFCC;" parent="qIVOGHb0BJN2lnLGOt8N-320" vertex="1">
          <mxGeometry width="30" height="30" as="geometry" />
        </mxCell>
        <mxCell id="qIVOGHb0BJN2lnLGOt8N-322" value="类目ID" style="shape=partialRectangle;connectable=0;top=0;left=0;bottom=0;right=0;align=left;spacingLeft=6;overflow=hidden;strokeColor=#82b366;fillColor=#CCFFCC;" parent="qIVOGHb0BJN2lnLGOt8N-320" vertex="1">
          <mxGeometry x="30" width="170" height="30" as="geometry" />
        </mxCell>
        <mxCell id="qIVOGHb0BJN2lnLGOt8N-206" value="SKU" style="shape=table;startSize=40;container=1;collapsible=1;childLayout=tableLayout;fixedRows=1;rowLines=0;fontStyle=1;align=center;resizeLast=1;fillColor=#dae8fc;strokeColor=#6c8ebf;" parent="1" vertex="1">
          <mxGeometry x="560" y="110" width="200" height="260" as="geometry" />
        </mxCell>
        <mxCell id="qIVOGHb0BJN2lnLGOt8N-207" value="" style="shape=partialRectangle;collapsible=0;dropTarget=0;pointerEvents=0;top=0;left=0;bottom=1;right=0;points=[[0,0.5],[1,0.5]];portConstraint=eastwest;fillColor=#CCFFCC;" parent="qIVOGHb0BJN2lnLGOt8N-206" vertex="1">
          <mxGeometry y="40" width="200" height="30" as="geometry" />
        </mxCell>
        <mxCell id="qIVOGHb0BJN2lnLGOt8N-208" value="PK" style="shape=partialRectangle;connectable=0;top=0;left=0;bottom=0;right=0;fontStyle=1;overflow=hidden;fillColor=#CCFFCC;" parent="qIVOGHb0BJN2lnLGOt8N-207" vertex="1">
          <mxGeometry width="30" height="30" as="geometry" />
        </mxCell>
        <mxCell id="qIVOGHb0BJN2lnLGOt8N-209" value="ID" style="shape=partialRectangle;connectable=0;top=0;left=0;bottom=0;right=0;align=left;spacingLeft=6;fontStyle=5;overflow=hidden;fillColor=#CCFFCC;" parent="qIVOGHb0BJN2lnLGOt8N-207" vertex="1">
          <mxGeometry x="30" width="170" height="30" as="geometry" />
        </mxCell>
        <mxCell id="qIVOGHb0BJN2lnLGOt8N-210" value="" style="shape=partialRectangle;collapsible=0;dropTarget=0;pointerEvents=0;top=0;left=0;bottom=0;right=0;points=[[0,0.5],[1,0.5]];portConstraint=eastwest;fillColor=#CCFFCC;" parent="qIVOGHb0BJN2lnLGOt8N-206" vertex="1">
          <mxGeometry y="70" width="200" height="40" as="geometry" />
        </mxCell>
        <mxCell id="qIVOGHb0BJN2lnLGOt8N-211" value="" style="shape=partialRectangle;connectable=0;top=0;left=0;bottom=0;right=0;editable=1;overflow=hidden;fillColor=#CCFFCC;" parent="qIVOGHb0BJN2lnLGOt8N-210" vertex="1">
          <mxGeometry width="30" height="40" as="geometry" />
        </mxCell>
        <mxCell id="qIVOGHb0BJN2lnLGOt8N-212" value="SKU_ID" style="shape=partialRectangle;connectable=0;top=0;left=0;bottom=0;right=0;align=left;spacingLeft=6;overflow=hidden;strokeWidth=1;labelBorderColor=none;fillColor=none;" parent="qIVOGHb0BJN2lnLGOt8N-210" vertex="1">
          <mxGeometry x="30" width="170" height="40" as="geometry" />
        </mxCell>
        <mxCell id="qIVOGHb0BJN2lnLGOt8N-213" value="" style="shape=partialRectangle;collapsible=0;dropTarget=0;pointerEvents=0;top=0;left=0;bottom=0;right=0;points=[[0,0.5],[1,0.5]];portConstraint=eastwest;fillColor=#CCFFCC;" parent="qIVOGHb0BJN2lnLGOt8N-206" vertex="1">
          <mxGeometry y="110" width="200" height="30" as="geometry" />
        </mxCell>
        <mxCell id="qIVOGHb0BJN2lnLGOt8N-214" value="" style="shape=partialRectangle;connectable=0;top=0;left=0;bottom=0;right=0;editable=1;overflow=hidden;fillColor=#CCFFCC;" parent="qIVOGHb0BJN2lnLGOt8N-213" vertex="1">
          <mxGeometry width="30" height="30" as="geometry" />
        </mxCell>
        <mxCell id="qIVOGHb0BJN2lnLGOt8N-215" value="属性ID&#xa;" style="shape=partialRectangle;connectable=0;top=0;left=0;bottom=0;right=0;align=left;spacingLeft=6;overflow=hidden;fillColor=#CCFFCC;" parent="qIVOGHb0BJN2lnLGOt8N-213" vertex="1">
          <mxGeometry x="30" width="170" height="30" as="geometry" />
        </mxCell>
        <mxCell id="qIVOGHb0BJN2lnLGOt8N-216" value="" style="shape=partialRectangle;collapsible=0;dropTarget=0;pointerEvents=0;top=0;left=0;bottom=0;right=0;points=[[0,0.5],[1,0.5]];portConstraint=eastwest;fillColor=#CCFFCC;" parent="qIVOGHb0BJN2lnLGOt8N-206" vertex="1">
          <mxGeometry y="140" width="200" height="30" as="geometry" />
        </mxCell>
        <mxCell id="qIVOGHb0BJN2lnLGOt8N-217" value="" style="shape=partialRectangle;connectable=0;top=0;left=0;bottom=0;right=0;editable=1;overflow=hidden;fillColor=#CCFFCC;" parent="qIVOGHb0BJN2lnLGOt8N-216" vertex="1">
          <mxGeometry width="30" height="30" as="geometry" />
        </mxCell>
        <mxCell id="qIVOGHb0BJN2lnLGOt8N-218" value="属性值ID" style="shape=partialRectangle;connectable=0;top=0;left=0;bottom=0;right=0;align=left;spacingLeft=6;overflow=hidden;fillColor=#CCFFCC;" parent="qIVOGHb0BJN2lnLGOt8N-216" vertex="1">
          <mxGeometry x="30" width="170" height="30" as="geometry" />
        </mxCell>
        <mxCell id="qIVOGHb0BJN2lnLGOt8N-219" value="" style="shape=partialRectangle;collapsible=0;dropTarget=0;pointerEvents=0;top=0;left=0;bottom=0;right=0;points=[[0,0.5],[1,0.5]];portConstraint=eastwest;fillColor=#CCFFCC;" parent="qIVOGHb0BJN2lnLGOt8N-206" vertex="1">
          <mxGeometry y="170" width="200" height="30" as="geometry" />
        </mxCell>
        <mxCell id="qIVOGHb0BJN2lnLGOt8N-220" value="" style="shape=partialRectangle;connectable=0;top=0;left=0;bottom=0;right=0;editable=1;overflow=hidden;fillColor=#CCFFCC;" parent="qIVOGHb0BJN2lnLGOt8N-219" vertex="1">
          <mxGeometry width="30" height="30" as="geometry" />
        </mxCell>
        <mxCell id="qIVOGHb0BJN2lnLGOt8N-221" value="" style="shape=partialRectangle;connectable=0;top=0;left=0;bottom=0;right=0;align=left;spacingLeft=6;overflow=hidden;fillColor=#CCFFCC;labelBorderColor=none;" parent="qIVOGHb0BJN2lnLGOt8N-219" vertex="1">
          <mxGeometry x="30" width="170" height="30" as="geometry" />
        </mxCell>
        <mxCell id="qIVOGHb0BJN2lnLGOt8N-222" value="" style="shape=partialRectangle;collapsible=0;dropTarget=0;pointerEvents=0;top=0;left=0;bottom=0;right=0;points=[[0,0.5],[1,0.5]];portConstraint=eastwest;fillColor=#CCFFCC;" parent="qIVOGHb0BJN2lnLGOt8N-206" vertex="1">
          <mxGeometry y="200" width="200" height="30" as="geometry" />
        </mxCell>
        <mxCell id="qIVOGHb0BJN2lnLGOt8N-223" value="" style="shape=partialRectangle;connectable=0;top=0;left=0;bottom=0;right=0;editable=1;overflow=hidden;fillColor=#CCFFCC;" parent="qIVOGHb0BJN2lnLGOt8N-222" vertex="1">
          <mxGeometry width="30" height="30" as="geometry" />
        </mxCell>
        <mxCell id="qIVOGHb0BJN2lnLGOt8N-224" value="" style="shape=partialRectangle;connectable=0;top=0;left=0;bottom=0;right=0;align=left;spacingLeft=6;overflow=hidden;fillColor=#CCFFCC;" parent="qIVOGHb0BJN2lnLGOt8N-222" vertex="1">
          <mxGeometry x="30" width="170" height="30" as="geometry" />
        </mxCell>
        <mxCell id="qIVOGHb0BJN2lnLGOt8N-225" value="" style="shape=partialRectangle;collapsible=0;dropTarget=0;pointerEvents=0;top=0;left=0;bottom=0;right=0;points=[[0,0.5],[1,0.5]];portConstraint=eastwest;fillColor=#CCFFCC;" parent="qIVOGHb0BJN2lnLGOt8N-206" vertex="1">
          <mxGeometry y="230" width="200" height="30" as="geometry" />
        </mxCell>
        <mxCell id="qIVOGHb0BJN2lnLGOt8N-226" value="" style="shape=partialRectangle;connectable=0;top=0;left=0;bottom=0;right=0;editable=1;overflow=hidden;fillColor=#CCFFCC;" parent="qIVOGHb0BJN2lnLGOt8N-225" vertex="1">
          <mxGeometry width="30" height="30" as="geometry" />
        </mxCell>
        <mxCell id="qIVOGHb0BJN2lnLGOt8N-227" value="" style="shape=partialRectangle;connectable=0;top=0;left=0;bottom=0;right=0;align=left;spacingLeft=6;overflow=hidden;fillColor=#CCFFCC;" parent="qIVOGHb0BJN2lnLGOt8N-225" vertex="1">
          <mxGeometry x="30" width="170" height="30" as="geometry" />
        </mxCell>
        <mxCell id="qIVOGHb0BJN2lnLGOt8N-228" value="属性" style="shape=table;startSize=40;container=1;collapsible=1;childLayout=tableLayout;fixedRows=1;rowLines=0;fontStyle=1;align=center;resizeLast=1;fillColor=#dae8fc;strokeColor=#6c8ebf;" parent="1" vertex="1">
          <mxGeometry x="940" y="-50" width="200" height="250" as="geometry" />
        </mxCell>
        <mxCell id="qIVOGHb0BJN2lnLGOt8N-229" value="" style="shape=partialRectangle;collapsible=0;dropTarget=0;pointerEvents=0;top=0;left=0;bottom=1;right=0;points=[[0,0.5],[1,0.5]];portConstraint=eastwest;fillColor=#CCFFCC;" parent="qIVOGHb0BJN2lnLGOt8N-228" vertex="1">
          <mxGeometry y="40" width="200" height="30" as="geometry" />
        </mxCell>
        <mxCell id="qIVOGHb0BJN2lnLGOt8N-230" value="PK" style="shape=partialRectangle;connectable=0;top=0;left=0;bottom=0;right=0;fontStyle=1;overflow=hidden;fillColor=#CCFFCC;" parent="qIVOGHb0BJN2lnLGOt8N-229" vertex="1">
          <mxGeometry width="30" height="30" as="geometry" />
        </mxCell>
        <mxCell id="qIVOGHb0BJN2lnLGOt8N-231" value="属性ID" style="shape=partialRectangle;connectable=0;top=0;left=0;bottom=0;right=0;align=left;spacingLeft=6;fontStyle=5;overflow=hidden;fillColor=#CCFFCC;" parent="qIVOGHb0BJN2lnLGOt8N-229" vertex="1">
          <mxGeometry x="30" width="170" height="30" as="geometry" />
        </mxCell>
        <mxCell id="qIVOGHb0BJN2lnLGOt8N-238" value="" style="shape=partialRectangle;collapsible=0;dropTarget=0;pointerEvents=0;top=0;left=0;bottom=0;right=0;points=[[0,0.5],[1,0.5]];portConstraint=eastwest;fillColor=#CCFFCC;" parent="qIVOGHb0BJN2lnLGOt8N-228" vertex="1">
          <mxGeometry y="70" width="200" height="20" as="geometry" />
        </mxCell>
        <mxCell id="qIVOGHb0BJN2lnLGOt8N-239" value="" style="shape=partialRectangle;connectable=0;top=0;left=0;bottom=0;right=0;editable=1;overflow=hidden;fillColor=#CCFFCC;" parent="qIVOGHb0BJN2lnLGOt8N-238" vertex="1">
          <mxGeometry width="30" height="20" as="geometry" />
        </mxCell>
        <mxCell id="qIVOGHb0BJN2lnLGOt8N-240" value="所属ID" style="shape=partialRectangle;connectable=0;top=0;left=0;bottom=0;right=0;align=left;spacingLeft=6;overflow=hidden;fillColor=#CCFFCC;" parent="qIVOGHb0BJN2lnLGOt8N-238" vertex="1">
          <mxGeometry x="30" width="170" height="20" as="geometry" />
        </mxCell>
        <mxCell id="qIVOGHb0BJN2lnLGOt8N-232" value="" style="shape=partialRectangle;collapsible=0;dropTarget=0;pointerEvents=0;top=0;left=0;bottom=0;right=0;points=[[0,0.5],[1,0.5]];portConstraint=eastwest;fillColor=#CCFFCC;" parent="qIVOGHb0BJN2lnLGOt8N-228" vertex="1">
          <mxGeometry y="90" width="200" height="40" as="geometry" />
        </mxCell>
        <mxCell id="qIVOGHb0BJN2lnLGOt8N-233" value="" style="shape=partialRectangle;connectable=0;top=0;left=0;bottom=0;right=0;editable=1;overflow=hidden;fillColor=#CCFFCC;" parent="qIVOGHb0BJN2lnLGOt8N-232" vertex="1">
          <mxGeometry width="30" height="40" as="geometry" />
        </mxCell>
        <mxCell id="qIVOGHb0BJN2lnLGOt8N-234" value="名称" style="shape=partialRectangle;connectable=0;top=0;left=0;bottom=0;right=0;align=left;spacingLeft=6;overflow=hidden;strokeWidth=1;labelBorderColor=none;fillColor=none;" parent="qIVOGHb0BJN2lnLGOt8N-232" vertex="1">
          <mxGeometry x="30" width="170" height="40" as="geometry" />
        </mxCell>
        <mxCell id="qIVOGHb0BJN2lnLGOt8N-235" value="" style="shape=partialRectangle;collapsible=0;dropTarget=0;pointerEvents=0;top=0;left=0;bottom=0;right=0;points=[[0,0.5],[1,0.5]];portConstraint=eastwest;fillColor=#CCFFCC;" parent="qIVOGHb0BJN2lnLGOt8N-228" vertex="1">
          <mxGeometry y="130" width="200" height="40" as="geometry" />
        </mxCell>
        <mxCell id="qIVOGHb0BJN2lnLGOt8N-236" value="" style="shape=partialRectangle;connectable=0;top=0;left=0;bottom=0;right=0;editable=1;overflow=hidden;fillColor=#CCFFCC;" parent="qIVOGHb0BJN2lnLGOt8N-235" vertex="1">
          <mxGeometry width="30" height="40" as="geometry" />
        </mxCell>
        <mxCell id="qIVOGHb0BJN2lnLGOt8N-237" value="属性类型&#xa;" style="shape=partialRectangle;connectable=0;top=0;left=0;bottom=0;right=0;align=left;spacingLeft=6;overflow=hidden;fillColor=#CCFFCC;" parent="qIVOGHb0BJN2lnLGOt8N-235" vertex="1">
          <mxGeometry x="30" width="170" height="40" as="geometry" />
        </mxCell>
        <mxCell id="qIVOGHb0BJN2lnLGOt8N-241" value="" style="shape=partialRectangle;collapsible=0;dropTarget=0;pointerEvents=0;top=0;left=0;bottom=0;right=0;points=[[0,0.5],[1,0.5]];portConstraint=eastwest;fillColor=#CCFFCC;" parent="qIVOGHb0BJN2lnLGOt8N-228" vertex="1">
          <mxGeometry y="170" width="200" height="20" as="geometry" />
        </mxCell>
        <mxCell id="qIVOGHb0BJN2lnLGOt8N-242" value="" style="shape=partialRectangle;connectable=0;top=0;left=0;bottom=0;right=0;editable=1;overflow=hidden;fillColor=#CCFFCC;" parent="qIVOGHb0BJN2lnLGOt8N-241" vertex="1">
          <mxGeometry width="30" height="20" as="geometry" />
        </mxCell>
        <mxCell id="qIVOGHb0BJN2lnLGOt8N-243" value="" style="shape=partialRectangle;connectable=0;top=0;left=0;bottom=0;right=0;align=left;spacingLeft=6;overflow=hidden;fillColor=#CCFFCC;labelBorderColor=none;" parent="qIVOGHb0BJN2lnLGOt8N-241" vertex="1">
          <mxGeometry x="30" width="170" height="20" as="geometry" />
        </mxCell>
        <mxCell id="qIVOGHb0BJN2lnLGOt8N-244" value="" style="shape=partialRectangle;collapsible=0;dropTarget=0;pointerEvents=0;top=0;left=0;bottom=0;right=0;points=[[0,0.5],[1,0.5]];portConstraint=eastwest;fillColor=#CCFFCC;" parent="qIVOGHb0BJN2lnLGOt8N-228" vertex="1">
          <mxGeometry y="190" width="200" height="30" as="geometry" />
        </mxCell>
        <mxCell id="qIVOGHb0BJN2lnLGOt8N-245" value="" style="shape=partialRectangle;connectable=0;top=0;left=0;bottom=0;right=0;editable=1;overflow=hidden;fillColor=#CCFFCC;" parent="qIVOGHb0BJN2lnLGOt8N-244" vertex="1">
          <mxGeometry width="30" height="30" as="geometry" />
        </mxCell>
        <mxCell id="qIVOGHb0BJN2lnLGOt8N-246" value="" style="shape=partialRectangle;connectable=0;top=0;left=0;bottom=0;right=0;align=left;spacingLeft=6;overflow=hidden;fillColor=#CCFFCC;" parent="qIVOGHb0BJN2lnLGOt8N-244" vertex="1">
          <mxGeometry x="30" width="170" height="30" as="geometry" />
        </mxCell>
        <mxCell id="qIVOGHb0BJN2lnLGOt8N-247" value="" style="shape=partialRectangle;collapsible=0;dropTarget=0;pointerEvents=0;top=0;left=0;bottom=0;right=0;points=[[0,0.5],[1,0.5]];portConstraint=eastwest;fillColor=#CCFFCC;" parent="qIVOGHb0BJN2lnLGOt8N-228" vertex="1">
          <mxGeometry y="220" width="200" height="30" as="geometry" />
        </mxCell>
        <mxCell id="qIVOGHb0BJN2lnLGOt8N-248" value="" style="shape=partialRectangle;connectable=0;top=0;left=0;bottom=0;right=0;editable=1;overflow=hidden;fillColor=#CCFFCC;" parent="qIVOGHb0BJN2lnLGOt8N-247" vertex="1">
          <mxGeometry width="30" height="30" as="geometry" />
        </mxCell>
        <mxCell id="qIVOGHb0BJN2lnLGOt8N-249" value="" style="shape=partialRectangle;connectable=0;top=0;left=0;bottom=0;right=0;align=left;spacingLeft=6;overflow=hidden;fillColor=#CCFFCC;" parent="qIVOGHb0BJN2lnLGOt8N-247" vertex="1">
          <mxGeometry x="30" width="170" height="30" as="geometry" />
        </mxCell>
        <mxCell id="qIVOGHb0BJN2lnLGOt8N-250" value="属性值" style="shape=table;startSize=40;container=1;collapsible=1;childLayout=tableLayout;fixedRows=1;rowLines=0;fontStyle=1;align=center;resizeLast=1;fillColor=#dae8fc;strokeColor=#6c8ebf;" parent="1" vertex="1">
          <mxGeometry x="1260" y="-50" width="200" height="250" as="geometry" />
        </mxCell>
        <mxCell id="qIVOGHb0BJN2lnLGOt8N-251" value="" style="shape=partialRectangle;collapsible=0;dropTarget=0;pointerEvents=0;top=0;left=0;bottom=1;right=0;points=[[0,0.5],[1,0.5]];portConstraint=eastwest;fillColor=#CCFFCC;" parent="qIVOGHb0BJN2lnLGOt8N-250" vertex="1">
          <mxGeometry y="40" width="200" height="30" as="geometry" />
        </mxCell>
        <mxCell id="qIVOGHb0BJN2lnLGOt8N-252" value="PK" style="shape=partialRectangle;connectable=0;top=0;left=0;bottom=0;right=0;fontStyle=1;overflow=hidden;fillColor=#CCFFCC;" parent="qIVOGHb0BJN2lnLGOt8N-251" vertex="1">
          <mxGeometry width="30" height="30" as="geometry" />
        </mxCell>
        <mxCell id="qIVOGHb0BJN2lnLGOt8N-253" value="属性值ID" style="shape=partialRectangle;connectable=0;top=0;left=0;bottom=0;right=0;align=left;spacingLeft=6;fontStyle=5;overflow=hidden;fillColor=#CCFFCC;" parent="qIVOGHb0BJN2lnLGOt8N-251" vertex="1">
          <mxGeometry x="30" width="170" height="30" as="geometry" />
        </mxCell>
        <mxCell id="qIVOGHb0BJN2lnLGOt8N-254" value="" style="shape=partialRectangle;collapsible=0;dropTarget=0;pointerEvents=0;top=0;left=0;bottom=0;right=0;points=[[0,0.5],[1,0.5]];portConstraint=eastwest;fillColor=#CCFFCC;" parent="qIVOGHb0BJN2lnLGOt8N-250" vertex="1">
          <mxGeometry y="70" width="200" height="20" as="geometry" />
        </mxCell>
        <mxCell id="qIVOGHb0BJN2lnLGOt8N-255" value="" style="shape=partialRectangle;connectable=0;top=0;left=0;bottom=0;right=0;editable=1;overflow=hidden;fillColor=#CCFFCC;" parent="qIVOGHb0BJN2lnLGOt8N-254" vertex="1">
          <mxGeometry width="30" height="20" as="geometry" />
        </mxCell>
        <mxCell id="qIVOGHb0BJN2lnLGOt8N-256" value="属性ID" style="shape=partialRectangle;connectable=0;top=0;left=0;bottom=0;right=0;align=left;spacingLeft=6;overflow=hidden;fillColor=#CCFFCC;" parent="qIVOGHb0BJN2lnLGOt8N-254" vertex="1">
          <mxGeometry x="30" width="170" height="20" as="geometry" />
        </mxCell>
        <mxCell id="qIVOGHb0BJN2lnLGOt8N-257" value="" style="shape=partialRectangle;collapsible=0;dropTarget=0;pointerEvents=0;top=0;left=0;bottom=0;right=0;points=[[0,0.5],[1,0.5]];portConstraint=eastwest;fillColor=#CCFFCC;" parent="qIVOGHb0BJN2lnLGOt8N-250" vertex="1">
          <mxGeometry y="90" width="200" height="40" as="geometry" />
        </mxCell>
        <mxCell id="qIVOGHb0BJN2lnLGOt8N-258" value="" style="shape=partialRectangle;connectable=0;top=0;left=0;bottom=0;right=0;editable=1;overflow=hidden;fillColor=#CCFFCC;" parent="qIVOGHb0BJN2lnLGOt8N-257" vertex="1">
          <mxGeometry width="30" height="40" as="geometry" />
        </mxCell>
        <mxCell id="qIVOGHb0BJN2lnLGOt8N-259" value="所属ID" style="shape=partialRectangle;connectable=0;top=0;left=0;bottom=0;right=0;align=left;spacingLeft=6;overflow=hidden;strokeWidth=1;labelBorderColor=none;fillColor=none;" parent="qIVOGHb0BJN2lnLGOt8N-257" vertex="1">
          <mxGeometry x="30" width="170" height="40" as="geometry" />
        </mxCell>
        <mxCell id="qIVOGHb0BJN2lnLGOt8N-260" value="" style="shape=partialRectangle;collapsible=0;dropTarget=0;pointerEvents=0;top=0;left=0;bottom=0;right=0;points=[[0,0.5],[1,0.5]];portConstraint=eastwest;fillColor=#CCFFCC;" parent="qIVOGHb0BJN2lnLGOt8N-250" vertex="1">
          <mxGeometry y="130" width="200" height="40" as="geometry" />
        </mxCell>
        <mxCell id="qIVOGHb0BJN2lnLGOt8N-261" value="" style="shape=partialRectangle;connectable=0;top=0;left=0;bottom=0;right=0;editable=1;overflow=hidden;fillColor=#CCFFCC;" parent="qIVOGHb0BJN2lnLGOt8N-260" vertex="1">
          <mxGeometry width="30" height="40" as="geometry" />
        </mxCell>
        <mxCell id="qIVOGHb0BJN2lnLGOt8N-262" value="值&#xa;" style="shape=partialRectangle;connectable=0;top=0;left=0;bottom=0;right=0;align=left;spacingLeft=6;overflow=hidden;fillColor=#CCFFCC;" parent="qIVOGHb0BJN2lnLGOt8N-260" vertex="1">
          <mxGeometry x="30" width="170" height="40" as="geometry" />
        </mxCell>
        <mxCell id="qIVOGHb0BJN2lnLGOt8N-263" value="" style="shape=partialRectangle;collapsible=0;dropTarget=0;pointerEvents=0;top=0;left=0;bottom=0;right=0;points=[[0,0.5],[1,0.5]];portConstraint=eastwest;fillColor=#CCFFCC;" parent="qIVOGHb0BJN2lnLGOt8N-250" vertex="1">
          <mxGeometry y="170" width="200" height="20" as="geometry" />
        </mxCell>
        <mxCell id="qIVOGHb0BJN2lnLGOt8N-264" value="" style="shape=partialRectangle;connectable=0;top=0;left=0;bottom=0;right=0;editable=1;overflow=hidden;fillColor=#CCFFCC;" parent="qIVOGHb0BJN2lnLGOt8N-263" vertex="1">
          <mxGeometry width="30" height="20" as="geometry" />
        </mxCell>
        <mxCell id="qIVOGHb0BJN2lnLGOt8N-265" value="" style="shape=partialRectangle;connectable=0;top=0;left=0;bottom=0;right=0;align=left;spacingLeft=6;overflow=hidden;fillColor=#CCFFCC;labelBorderColor=none;" parent="qIVOGHb0BJN2lnLGOt8N-263" vertex="1">
          <mxGeometry x="30" width="170" height="20" as="geometry" />
        </mxCell>
        <mxCell id="qIVOGHb0BJN2lnLGOt8N-266" value="" style="shape=partialRectangle;collapsible=0;dropTarget=0;pointerEvents=0;top=0;left=0;bottom=0;right=0;points=[[0,0.5],[1,0.5]];portConstraint=eastwest;fillColor=#CCFFCC;" parent="qIVOGHb0BJN2lnLGOt8N-250" vertex="1">
          <mxGeometry y="190" width="200" height="30" as="geometry" />
        </mxCell>
        <mxCell id="qIVOGHb0BJN2lnLGOt8N-267" value="" style="shape=partialRectangle;connectable=0;top=0;left=0;bottom=0;right=0;editable=1;overflow=hidden;fillColor=#CCFFCC;" parent="qIVOGHb0BJN2lnLGOt8N-266" vertex="1">
          <mxGeometry width="30" height="30" as="geometry" />
        </mxCell>
        <mxCell id="qIVOGHb0BJN2lnLGOt8N-268" value="" style="shape=partialRectangle;connectable=0;top=0;left=0;bottom=0;right=0;align=left;spacingLeft=6;overflow=hidden;fillColor=#CCFFCC;" parent="qIVOGHb0BJN2lnLGOt8N-266" vertex="1">
          <mxGeometry x="30" width="170" height="30" as="geometry" />
        </mxCell>
        <mxCell id="qIVOGHb0BJN2lnLGOt8N-269" value="" style="shape=partialRectangle;collapsible=0;dropTarget=0;pointerEvents=0;top=0;left=0;bottom=0;right=0;points=[[0,0.5],[1,0.5]];portConstraint=eastwest;fillColor=#CCFFCC;" parent="qIVOGHb0BJN2lnLGOt8N-250" vertex="1">
          <mxGeometry y="220" width="200" height="30" as="geometry" />
        </mxCell>
        <mxCell id="qIVOGHb0BJN2lnLGOt8N-270" value="" style="shape=partialRectangle;connectable=0;top=0;left=0;bottom=0;right=0;editable=1;overflow=hidden;fillColor=#CCFFCC;" parent="qIVOGHb0BJN2lnLGOt8N-269" vertex="1">
          <mxGeometry width="30" height="30" as="geometry" />
        </mxCell>
        <mxCell id="qIVOGHb0BJN2lnLGOt8N-271" value="" style="shape=partialRectangle;connectable=0;top=0;left=0;bottom=0;right=0;align=left;spacingLeft=6;overflow=hidden;fillColor=#CCFFCC;" parent="qIVOGHb0BJN2lnLGOt8N-269" vertex="1">
          <mxGeometry x="30" width="170" height="30" as="geometry" />
        </mxCell>
        <mxCell id="qIVOGHb0BJN2lnLGOt8N-294" value="" style="endArrow=none;html=1;rounded=0;exitX=1;exitY=0.967;exitDx=0;exitDy=0;exitPerimeter=0;" parent="1" source="qIVOGHb0BJN2lnLGOt8N-191" edge="1">
          <mxGeometry relative="1" as="geometry">
            <mxPoint x="1070" y="450" as="sourcePoint" />
            <mxPoint x="1317" y="480" as="targetPoint" />
            <Array as="points">
              <mxPoint x="1317" y="480" />
            </Array>
          </mxGeometry>
        </mxCell>
        <mxCell id="qIVOGHb0BJN2lnLGOt8N-295" value="n" style="edgeLabel;html=1;align=center;verticalAlign=middle;resizable=0;points=[];" parent="qIVOGHb0BJN2lnLGOt8N-294" vertex="1" connectable="0">
          <mxGeometry x="-0.6742" y="-1" relative="1" as="geometry">
            <mxPoint as="offset" />
          </mxGeometry>
        </mxCell>
        <mxCell id="qIVOGHb0BJN2lnLGOt8N-296" value="1" style="edgeLabel;html=1;align=center;verticalAlign=middle;resizable=0;points=[];" parent="qIVOGHb0BJN2lnLGOt8N-294" vertex="1" connectable="0">
          <mxGeometry x="1" y="23" relative="1" as="geometry">
            <mxPoint x="-23" y="1" as="offset" />
          </mxGeometry>
        </mxCell>
        <mxCell id="qIVOGHb0BJN2lnLGOt8N-302" value="1" style="endArrow=none;html=1;exitX=1;exitY=0.5;exitDx=0;exitDy=0;rounded=1;" parent="1" source="qIVOGHb0BJN2lnLGOt8N-206" edge="1">
          <mxGeometry relative="1" as="geometry">
            <mxPoint x="760" y="235" as="sourcePoint" />
            <mxPoint x="850" y="490" as="targetPoint" />
            <Array as="points">
              <mxPoint x="840" y="240" />
              <mxPoint x="840" y="490" />
              <mxPoint x="890" y="490" />
            </Array>
          </mxGeometry>
        </mxCell>
        <mxCell id="qIVOGHb0BJN2lnLGOt8N-304" value="n" style="edgeLabel;html=1;align=center;verticalAlign=middle;resizable=0;points=[];" parent="qIVOGHb0BJN2lnLGOt8N-302" vertex="1" connectable="0">
          <mxGeometry x="-0.8571" y="1" relative="1" as="geometry">
            <mxPoint as="offset" />
          </mxGeometry>
        </mxCell>
        <mxCell id="qIVOGHb0BJN2lnLGOt8N-307" style="edgeStyle=none;rounded=1;orthogonalLoop=1;jettySize=auto;html=1;entryX=0;entryY=0.5;entryDx=0;entryDy=0;startSize=40;exitX=0.555;exitY=-0.015;exitDx=0;exitDy=0;exitPerimeter=0;" parent="1" source="qIVOGHb0BJN2lnLGOt8N-206" target="qIVOGHb0BJN2lnLGOt8N-232" edge="1">
          <mxGeometry relative="1" as="geometry">
            <Array as="points">
              <mxPoint x="671" y="60" />
            </Array>
          </mxGeometry>
        </mxCell>
        <mxCell id="qIVOGHb0BJN2lnLGOt8N-311" value="" style="endArrow=none;html=1;rounded=0;exitX=1;exitY=0.5;exitDx=0;exitDy=0;" parent="1" source="qIVOGHb0BJN2lnLGOt8N-232" edge="1">
          <mxGeometry relative="1" as="geometry">
            <mxPoint x="1130" y="60" as="sourcePoint" />
            <mxPoint x="1260" y="60" as="targetPoint" />
          </mxGeometry>
        </mxCell>
        <mxCell id="qIVOGHb0BJN2lnLGOt8N-318" value="1" style="edgeLabel;html=1;align=center;verticalAlign=middle;resizable=0;points=[];" parent="qIVOGHb0BJN2lnLGOt8N-311" vertex="1" connectable="0">
          <mxGeometry x="-0.7833" y="3" relative="1" as="geometry">
            <mxPoint as="offset" />
          </mxGeometry>
        </mxCell>
        <mxCell id="qIVOGHb0BJN2lnLGOt8N-319" value="n" style="edgeLabel;html=1;align=center;verticalAlign=middle;resizable=0;points=[];" parent="qIVOGHb0BJN2lnLGOt8N-311" vertex="1" connectable="0">
          <mxGeometry x="0.4167" y="3" relative="1" as="geometry">
            <mxPoint as="offset" />
          </mxGeometry>
        </mxCell>
        <mxCell id="qIVOGHb0BJN2lnLGOt8N-272" value="类目" style="shape=table;startSize=40;container=1;collapsible=1;childLayout=tableLayout;fixedRows=1;rowLines=0;fontStyle=1;align=center;resizeLast=1;fillColor=#dae8fc;strokeColor=#6c8ebf;" parent="1" vertex="1">
          <mxGeometry x="1590" y="90" width="200" height="250" as="geometry" />
        </mxCell>
        <mxCell id="qIVOGHb0BJN2lnLGOt8N-273" value="" style="shape=partialRectangle;collapsible=0;dropTarget=0;pointerEvents=0;top=0;left=0;bottom=1;right=0;points=[[0,0.5],[1,0.5]];portConstraint=eastwest;fillColor=#CCFFCC;" parent="qIVOGHb0BJN2lnLGOt8N-272" vertex="1">
          <mxGeometry y="40" width="200" height="30" as="geometry" />
        </mxCell>
        <mxCell id="qIVOGHb0BJN2lnLGOt8N-274" value="PK" style="shape=partialRectangle;connectable=0;top=0;left=0;bottom=0;right=0;fontStyle=1;overflow=hidden;fillColor=#CCFFCC;" parent="qIVOGHb0BJN2lnLGOt8N-273" vertex="1">
          <mxGeometry width="30" height="30" as="geometry" />
        </mxCell>
        <mxCell id="qIVOGHb0BJN2lnLGOt8N-275" value="类目ID" style="shape=partialRectangle;connectable=0;top=0;left=0;bottom=0;right=0;align=left;spacingLeft=6;fontStyle=5;overflow=hidden;fillColor=#CCFFCC;" parent="qIVOGHb0BJN2lnLGOt8N-273" vertex="1">
          <mxGeometry x="30" width="170" height="30" as="geometry" />
        </mxCell>
        <mxCell id="qIVOGHb0BJN2lnLGOt8N-276" value="" style="shape=partialRectangle;collapsible=0;dropTarget=0;pointerEvents=0;top=0;left=0;bottom=0;right=0;points=[[0,0.5],[1,0.5]];portConstraint=eastwest;fillColor=#CCFFCC;" parent="qIVOGHb0BJN2lnLGOt8N-272" vertex="1">
          <mxGeometry y="70" width="200" height="20" as="geometry" />
        </mxCell>
        <mxCell id="qIVOGHb0BJN2lnLGOt8N-277" value="" style="shape=partialRectangle;connectable=0;top=0;left=0;bottom=0;right=0;editable=1;overflow=hidden;fillColor=#CCFFCC;" parent="qIVOGHb0BJN2lnLGOt8N-276" vertex="1">
          <mxGeometry width="30" height="20" as="geometry" />
        </mxCell>
        <mxCell id="qIVOGHb0BJN2lnLGOt8N-278" value="名称" style="shape=partialRectangle;connectable=0;top=0;left=0;bottom=0;right=0;align=left;spacingLeft=6;overflow=hidden;fillColor=#CCFFCC;" parent="qIVOGHb0BJN2lnLGOt8N-276" vertex="1">
          <mxGeometry x="30" width="170" height="20" as="geometry" />
        </mxCell>
        <mxCell id="qIVOGHb0BJN2lnLGOt8N-285" value="" style="shape=partialRectangle;collapsible=0;dropTarget=0;pointerEvents=0;top=0;left=0;bottom=0;right=0;points=[[0,0.5],[1,0.5]];portConstraint=eastwest;fillColor=#CCFFCC;" parent="qIVOGHb0BJN2lnLGOt8N-272" vertex="1">
          <mxGeometry y="90" width="200" height="20" as="geometry" />
        </mxCell>
        <mxCell id="qIVOGHb0BJN2lnLGOt8N-286" value="" style="shape=partialRectangle;connectable=0;top=0;left=0;bottom=0;right=0;editable=1;overflow=hidden;fillColor=#CCFFCC;" parent="qIVOGHb0BJN2lnLGOt8N-285" vertex="1">
          <mxGeometry width="30" height="20" as="geometry" />
        </mxCell>
        <mxCell id="qIVOGHb0BJN2lnLGOt8N-287" value="父类目ID" style="shape=partialRectangle;connectable=0;top=0;left=0;bottom=0;right=0;align=left;spacingLeft=6;overflow=hidden;fillColor=#CCFFCC;labelBorderColor=none;" parent="qIVOGHb0BJN2lnLGOt8N-285" vertex="1">
          <mxGeometry x="30" width="170" height="20" as="geometry" />
        </mxCell>
        <mxCell id="qIVOGHb0BJN2lnLGOt8N-279" value="" style="shape=partialRectangle;collapsible=0;dropTarget=0;pointerEvents=0;top=0;left=0;bottom=0;right=0;points=[[0,0.5],[1,0.5]];portConstraint=eastwest;fillColor=#CCFFCC;" parent="qIVOGHb0BJN2lnLGOt8N-272" vertex="1">
          <mxGeometry y="110" width="200" height="40" as="geometry" />
        </mxCell>
        <mxCell id="qIVOGHb0BJN2lnLGOt8N-280" value="" style="shape=partialRectangle;connectable=0;top=0;left=0;bottom=0;right=0;editable=1;overflow=hidden;fillColor=#CCFFCC;" parent="qIVOGHb0BJN2lnLGOt8N-279" vertex="1">
          <mxGeometry width="30" height="40" as="geometry" />
        </mxCell>
        <mxCell id="qIVOGHb0BJN2lnLGOt8N-281" value="创建人" style="shape=partialRectangle;connectable=0;top=0;left=0;bottom=0;right=0;align=left;spacingLeft=6;overflow=hidden;strokeWidth=1;labelBorderColor=none;fillColor=none;" parent="qIVOGHb0BJN2lnLGOt8N-279" vertex="1">
          <mxGeometry x="30" width="170" height="40" as="geometry" />
        </mxCell>
        <mxCell id="qIVOGHb0BJN2lnLGOt8N-282" value="" style="shape=partialRectangle;collapsible=0;dropTarget=0;pointerEvents=0;top=0;left=0;bottom=0;right=0;points=[[0,0.5],[1,0.5]];portConstraint=eastwest;fillColor=#CCFFCC;" parent="qIVOGHb0BJN2lnLGOt8N-272" vertex="1">
          <mxGeometry y="150" width="200" height="40" as="geometry" />
        </mxCell>
        <mxCell id="qIVOGHb0BJN2lnLGOt8N-283" value="" style="shape=partialRectangle;connectable=0;top=0;left=0;bottom=0;right=0;editable=1;overflow=hidden;fillColor=#CCFFCC;" parent="qIVOGHb0BJN2lnLGOt8N-282" vertex="1">
          <mxGeometry width="30" height="40" as="geometry" />
        </mxCell>
        <mxCell id="qIVOGHb0BJN2lnLGOt8N-284" value="创建时间&#xa;" style="shape=partialRectangle;connectable=0;top=0;left=0;bottom=0;right=0;align=left;spacingLeft=6;overflow=hidden;fillColor=#CCFFCC;" parent="qIVOGHb0BJN2lnLGOt8N-282" vertex="1">
          <mxGeometry x="30" width="170" height="40" as="geometry" />
        </mxCell>
        <mxCell id="qIVOGHb0BJN2lnLGOt8N-288" value="" style="shape=partialRectangle;collapsible=0;dropTarget=0;pointerEvents=0;top=0;left=0;bottom=0;right=0;points=[[0,0.5],[1,0.5]];portConstraint=eastwest;fillColor=#CCFFCC;" parent="qIVOGHb0BJN2lnLGOt8N-272" vertex="1">
          <mxGeometry y="190" width="200" height="30" as="geometry" />
        </mxCell>
        <mxCell id="qIVOGHb0BJN2lnLGOt8N-289" value="" style="shape=partialRectangle;connectable=0;top=0;left=0;bottom=0;right=0;editable=1;overflow=hidden;fillColor=#CCFFCC;" parent="qIVOGHb0BJN2lnLGOt8N-288" vertex="1">
          <mxGeometry width="30" height="30" as="geometry" />
        </mxCell>
        <mxCell id="qIVOGHb0BJN2lnLGOt8N-290" value="" style="shape=partialRectangle;connectable=0;top=0;left=0;bottom=0;right=0;align=left;spacingLeft=6;overflow=hidden;fillColor=#CCFFCC;" parent="qIVOGHb0BJN2lnLGOt8N-288" vertex="1">
          <mxGeometry x="30" width="170" height="30" as="geometry" />
        </mxCell>
        <mxCell id="qIVOGHb0BJN2lnLGOt8N-291" value="" style="shape=partialRectangle;collapsible=0;dropTarget=0;pointerEvents=0;top=0;left=0;bottom=0;right=0;points=[[0,0.5],[1,0.5]];portConstraint=eastwest;fillColor=#CCFFCC;" parent="qIVOGHb0BJN2lnLGOt8N-272" vertex="1">
          <mxGeometry y="220" width="200" height="30" as="geometry" />
        </mxCell>
        <mxCell id="qIVOGHb0BJN2lnLGOt8N-292" value="" style="shape=partialRectangle;connectable=0;top=0;left=0;bottom=0;right=0;editable=1;overflow=hidden;fillColor=#CCFFCC;" parent="qIVOGHb0BJN2lnLGOt8N-291" vertex="1">
          <mxGeometry width="30" height="30" as="geometry" />
        </mxCell>
        <mxCell id="qIVOGHb0BJN2lnLGOt8N-293" value="" style="shape=partialRectangle;connectable=0;top=0;left=0;bottom=0;right=0;align=left;spacingLeft=6;overflow=hidden;fillColor=#CCFFCC;" parent="qIVOGHb0BJN2lnLGOt8N-291" vertex="1">
          <mxGeometry x="30" width="170" height="30" as="geometry" />
        </mxCell>
        <mxCell id="qIVOGHb0BJN2lnLGOt8N-324" value="" style="endArrow=none;html=1;rounded=0;entryX=0.5;entryY=1;entryDx=0;entryDy=0;exitX=1.015;exitY=0.167;exitDx=0;exitDy=0;exitPerimeter=0;" parent="1" source="qIVOGHb0BJN2lnLGOt8N-320" target="qIVOGHb0BJN2lnLGOt8N-272" edge="1">
          <mxGeometry relative="1" as="geometry">
            <mxPoint x="1510" y="495" as="sourcePoint" />
            <mxPoint x="1670" y="495" as="targetPoint" />
            <Array as="points">
              <mxPoint x="1690" y="605" />
            </Array>
          </mxGeometry>
        </mxCell>
        <mxCell id="qIVOGHb0BJN2lnLGOt8N-325" value="1" style="edgeLabel;html=1;align=center;verticalAlign=middle;resizable=0;points=[];" parent="qIVOGHb0BJN2lnLGOt8N-324" vertex="1" connectable="0">
          <mxGeometry x="-0.5642" y="-1" relative="1" as="geometry">
            <mxPoint as="offset" />
          </mxGeometry>
        </mxCell>
        <mxCell id="qIVOGHb0BJN2lnLGOt8N-326" value="1" style="edgeLabel;html=1;align=center;verticalAlign=middle;resizable=0;points=[];" parent="qIVOGHb0BJN2lnLGOt8N-324" vertex="1" connectable="0">
          <mxGeometry x="0.809" y="1" relative="1" as="geometry">
            <mxPoint as="offset" />
          </mxGeometry>
        </mxCell>
        <mxCell id="dsCXNzd8llGc-nTdz9Kb-28" value="" style="endArrow=none;html=1;rounded=0;entryX=0.5;entryY=0;entryDx=0;entryDy=0;" parent="1" target="dsCXNzd8llGc-nTdz9Kb-1" edge="1">
          <mxGeometry relative="1" as="geometry">
            <mxPoint x="1510" y="530" as="sourcePoint" />
            <mxPoint x="1580" y="600" as="targetPoint" />
            <Array as="points">
              <mxPoint x="1610" y="530" />
              <mxPoint x="1840" y="530" />
            </Array>
          </mxGeometry>
        </mxCell>
        <mxCell id="dsCXNzd8llGc-nTdz9Kb-29" value="1" style="edgeLabel;html=1;align=center;verticalAlign=middle;resizable=0;points=[];" parent="dsCXNzd8llGc-nTdz9Kb-28" vertex="1" connectable="0">
          <mxGeometry x="-0.8286" relative="1" as="geometry">
            <mxPoint as="offset" />
          </mxGeometry>
        </mxCell>
        <mxCell id="dsCXNzd8llGc-nTdz9Kb-30" value="1" style="edgeLabel;html=1;align=center;verticalAlign=middle;resizable=0;points=[];" parent="dsCXNzd8llGc-nTdz9Kb-28" vertex="1" connectable="0">
          <mxGeometry x="0.6714" y="1" relative="1" as="geometry">
            <mxPoint as="offset" />
          </mxGeometry>
        </mxCell>
        <mxCell id="dsCXNzd8llGc-nTdz9Kb-1" value="商品上架" style="shape=table;startSize=40;container=1;collapsible=1;childLayout=tableLayout;fixedRows=1;rowLines=0;fontStyle=1;align=center;resizeLast=1;fillColor=#dae8fc;strokeColor=#6c8ebf;" parent="1" vertex="1">
          <mxGeometry x="1740" y="700" width="200" height="200" as="geometry" />
        </mxCell>
        <mxCell id="dsCXNzd8llGc-nTdz9Kb-2" value="" style="shape=partialRectangle;collapsible=0;dropTarget=0;pointerEvents=0;top=0;left=0;bottom=1;right=0;points=[[0,0.5],[1,0.5]];portConstraint=eastwest;fillColor=#CCFFCC;" parent="dsCXNzd8llGc-nTdz9Kb-1" vertex="1">
          <mxGeometry y="40" width="200" height="30" as="geometry" />
        </mxCell>
        <mxCell id="dsCXNzd8llGc-nTdz9Kb-3" value="PK" style="shape=partialRectangle;connectable=0;top=0;left=0;bottom=0;right=0;fontStyle=1;overflow=hidden;fillColor=#CCFFCC;" parent="dsCXNzd8llGc-nTdz9Kb-2" vertex="1">
          <mxGeometry width="30" height="30" as="geometry" />
        </mxCell>
        <mxCell id="dsCXNzd8llGc-nTdz9Kb-4" value="商品ID" style="shape=partialRectangle;connectable=0;top=0;left=0;bottom=0;right=0;align=left;spacingLeft=6;fontStyle=5;overflow=hidden;fillColor=#CCFFCC;" parent="dsCXNzd8llGc-nTdz9Kb-2" vertex="1">
          <mxGeometry x="30" width="170" height="30" as="geometry" />
        </mxCell>
        <mxCell id="dsCXNzd8llGc-nTdz9Kb-14" value="" style="shape=partialRectangle;collapsible=0;dropTarget=0;pointerEvents=0;top=0;left=0;bottom=0;right=0;points=[[0,0.5],[1,0.5]];portConstraint=eastwest;fillColor=#CCFFCC;" parent="dsCXNzd8llGc-nTdz9Kb-1" vertex="1">
          <mxGeometry y="70" width="200" height="40" as="geometry" />
        </mxCell>
        <mxCell id="dsCXNzd8llGc-nTdz9Kb-15" value="" style="shape=partialRectangle;connectable=0;top=0;left=0;bottom=0;right=0;editable=1;overflow=hidden;fillColor=#CCFFCC;" parent="dsCXNzd8llGc-nTdz9Kb-14" vertex="1">
          <mxGeometry width="30" height="40" as="geometry" />
        </mxCell>
        <mxCell id="dsCXNzd8llGc-nTdz9Kb-16" value="上架时间" style="shape=partialRectangle;connectable=0;top=0;left=0;bottom=0;right=0;align=left;spacingLeft=6;overflow=hidden;fillColor=#CCFFCC;" parent="dsCXNzd8llGc-nTdz9Kb-14" vertex="1">
          <mxGeometry x="30" width="170" height="40" as="geometry" />
        </mxCell>
        <mxCell id="dsCXNzd8llGc-nTdz9Kb-23" value="" style="shape=partialRectangle;collapsible=0;dropTarget=0;pointerEvents=0;fillColor=none;top=0;left=0;bottom=0;right=0;points=[[0,0.5],[1,0.5]];portConstraint=eastwest;strokeWidth=1;align=left;" parent="dsCXNzd8llGc-nTdz9Kb-1" vertex="1">
          <mxGeometry y="110" width="200" height="30" as="geometry" />
        </mxCell>
        <mxCell id="dsCXNzd8llGc-nTdz9Kb-24" value="" style="shape=partialRectangle;connectable=0;top=0;left=0;bottom=0;right=0;editable=1;overflow=hidden;fillColor=#CCFFCC;" parent="dsCXNzd8llGc-nTdz9Kb-23" vertex="1">
          <mxGeometry width="30" height="30" as="geometry" />
        </mxCell>
        <mxCell id="dsCXNzd8llGc-nTdz9Kb-25" value="上架状态" style="shape=partialRectangle;connectable=0;top=0;left=0;bottom=0;right=0;align=left;spacingLeft=6;overflow=hidden;strokeColor=#82b366;fillColor=#CCFFCC;" parent="dsCXNzd8llGc-nTdz9Kb-23" vertex="1">
          <mxGeometry x="30" width="170" height="30" as="geometry" />
        </mxCell>
        <mxCell id="dsCXNzd8llGc-nTdz9Kb-17" value="" style="shape=partialRectangle;collapsible=0;dropTarget=0;pointerEvents=0;top=0;left=0;bottom=0;right=0;points=[[0,0.5],[1,0.5]];portConstraint=eastwest;fillColor=#CCFFCC;" parent="dsCXNzd8llGc-nTdz9Kb-1" vertex="1">
          <mxGeometry y="140" width="200" height="30" as="geometry" />
        </mxCell>
        <mxCell id="dsCXNzd8llGc-nTdz9Kb-18" value="" style="shape=partialRectangle;connectable=0;top=0;left=0;bottom=0;right=0;editable=1;overflow=hidden;fillColor=#CCFFCC;" parent="dsCXNzd8llGc-nTdz9Kb-17" vertex="1">
          <mxGeometry width="30" height="30" as="geometry" />
        </mxCell>
        <mxCell id="dsCXNzd8llGc-nTdz9Kb-19" value="创建人" style="shape=partialRectangle;connectable=0;top=0;left=0;bottom=0;right=0;align=left;spacingLeft=6;overflow=hidden;fillColor=#CCFFCC;" parent="dsCXNzd8llGc-nTdz9Kb-17" vertex="1">
          <mxGeometry x="30" width="170" height="30" as="geometry" />
        </mxCell>
        <mxCell id="dsCXNzd8llGc-nTdz9Kb-20" value="" style="shape=partialRectangle;collapsible=0;dropTarget=0;pointerEvents=0;top=0;left=0;bottom=0;right=0;points=[[0,0.5],[1,0.5]];portConstraint=eastwest;fillColor=#CCFFCC;" parent="dsCXNzd8llGc-nTdz9Kb-1" vertex="1">
          <mxGeometry y="170" width="200" height="30" as="geometry" />
        </mxCell>
        <mxCell id="dsCXNzd8llGc-nTdz9Kb-21" value="" style="shape=partialRectangle;connectable=0;top=0;left=0;bottom=0;right=0;editable=1;overflow=hidden;fillColor=#CCFFCC;" parent="dsCXNzd8llGc-nTdz9Kb-20" vertex="1">
          <mxGeometry width="30" height="30" as="geometry" />
        </mxCell>
        <mxCell id="dsCXNzd8llGc-nTdz9Kb-22" value="创建时间" style="shape=partialRectangle;connectable=0;top=0;left=0;bottom=0;right=0;align=left;spacingLeft=6;overflow=hidden;fillColor=#CCFFCC;" parent="dsCXNzd8llGc-nTdz9Kb-20" vertex="1">
          <mxGeometry x="30" width="170" height="30" as="geometry" />
        </mxCell>
        <mxCell id="fLH93Ka3nVB979V-HaJ9-1" value="商品详情" style="shape=table;startSize=40;container=1;collapsible=1;childLayout=tableLayout;fixedRows=1;rowLines=0;fontStyle=1;align=center;resizeLast=1;fillColor=#dae8fc;strokeColor=#6c8ebf;" vertex="1" parent="1">
          <mxGeometry x="1316" y="710" width="200" height="160" as="geometry" />
        </mxCell>
        <mxCell id="fLH93Ka3nVB979V-HaJ9-2" value="" style="shape=partialRectangle;collapsible=0;dropTarget=0;pointerEvents=0;top=0;left=0;bottom=1;right=0;points=[[0,0.5],[1,0.5]];portConstraint=eastwest;fillColor=#CCFFCC;" vertex="1" parent="fLH93Ka3nVB979V-HaJ9-1">
          <mxGeometry y="40" width="200" height="30" as="geometry" />
        </mxCell>
        <mxCell id="fLH93Ka3nVB979V-HaJ9-3" value="PK" style="shape=partialRectangle;connectable=0;top=0;left=0;bottom=0;right=0;fontStyle=1;overflow=hidden;fillColor=#CCFFCC;" vertex="1" parent="fLH93Ka3nVB979V-HaJ9-2">
          <mxGeometry width="30" height="30" as="geometry" />
        </mxCell>
        <mxCell id="fLH93Ka3nVB979V-HaJ9-4" value="商品ID" style="shape=partialRectangle;connectable=0;top=0;left=0;bottom=0;right=0;align=left;spacingLeft=6;fontStyle=5;overflow=hidden;fillColor=#CCFFCC;" vertex="1" parent="fLH93Ka3nVB979V-HaJ9-2">
          <mxGeometry x="30" width="170" height="30" as="geometry" />
        </mxCell>
        <mxCell id="fLH93Ka3nVB979V-HaJ9-5" value="" style="shape=partialRectangle;collapsible=0;dropTarget=0;pointerEvents=0;top=0;left=0;bottom=0;right=0;points=[[0,0.5],[1,0.5]];portConstraint=eastwest;fillColor=#CCFFCC;" vertex="1" parent="fLH93Ka3nVB979V-HaJ9-1">
          <mxGeometry y="70" width="200" height="30" as="geometry" />
        </mxCell>
        <mxCell id="fLH93Ka3nVB979V-HaJ9-6" value="" style="shape=partialRectangle;connectable=0;top=0;left=0;bottom=0;right=0;editable=1;overflow=hidden;fillColor=#CCFFCC;" vertex="1" parent="fLH93Ka3nVB979V-HaJ9-5">
          <mxGeometry width="30" height="30" as="geometry" />
        </mxCell>
        <mxCell id="fLH93Ka3nVB979V-HaJ9-7" value="商品描述&#xa;" style="shape=partialRectangle;connectable=0;top=0;left=0;bottom=0;right=0;align=left;spacingLeft=6;overflow=hidden;fillColor=#CCFFCC;" vertex="1" parent="fLH93Ka3nVB979V-HaJ9-5">
          <mxGeometry x="30" width="170" height="30" as="geometry" />
        </mxCell>
        <mxCell id="fLH93Ka3nVB979V-HaJ9-8" value="" style="shape=partialRectangle;collapsible=0;dropTarget=0;pointerEvents=0;top=0;left=0;bottom=0;right=0;points=[[0,0.5],[1,0.5]];portConstraint=eastwest;fillColor=#CCFFCC;" vertex="1" parent="fLH93Ka3nVB979V-HaJ9-1">
          <mxGeometry y="100" width="200" height="30" as="geometry" />
        </mxCell>
        <mxCell id="fLH93Ka3nVB979V-HaJ9-9" value="" style="shape=partialRectangle;connectable=0;top=0;left=0;bottom=0;right=0;editable=1;overflow=hidden;fillColor=#CCFFCC;" vertex="1" parent="fLH93Ka3nVB979V-HaJ9-8">
          <mxGeometry width="30" height="30" as="geometry" />
        </mxCell>
        <mxCell id="fLH93Ka3nVB979V-HaJ9-10" value="商品详情信息&#xa;" style="shape=partialRectangle;connectable=0;top=0;left=0;bottom=0;right=0;align=left;spacingLeft=6;overflow=hidden;fillColor=#CCFFCC;" vertex="1" parent="fLH93Ka3nVB979V-HaJ9-8">
          <mxGeometry x="30" width="170" height="30" as="geometry" />
        </mxCell>
        <mxCell id="fLH93Ka3nVB979V-HaJ9-11" value="" style="shape=partialRectangle;collapsible=0;dropTarget=0;pointerEvents=0;top=0;left=0;bottom=0;right=0;points=[[0,0.5],[1,0.5]];portConstraint=eastwest;fillColor=#CCFFCC;" vertex="1" parent="fLH93Ka3nVB979V-HaJ9-1">
          <mxGeometry y="130" width="200" height="30" as="geometry" />
        </mxCell>
        <mxCell id="fLH93Ka3nVB979V-HaJ9-12" value="" style="shape=partialRectangle;connectable=0;top=0;left=0;bottom=0;right=0;editable=1;overflow=hidden;fillColor=#CCFFCC;" vertex="1" parent="fLH93Ka3nVB979V-HaJ9-11">
          <mxGeometry width="30" height="30" as="geometry" />
        </mxCell>
        <mxCell id="fLH93Ka3nVB979V-HaJ9-13" value="商品详情大图" style="shape=partialRectangle;connectable=0;top=0;left=0;bottom=0;right=0;align=left;spacingLeft=6;overflow=hidden;fillColor=#CCFFCC;" vertex="1" parent="fLH93Ka3nVB979V-HaJ9-11">
          <mxGeometry x="30" width="170" height="30" as="geometry" />
        </mxCell>
        <mxCell id="fLH93Ka3nVB979V-HaJ9-26" value="" style="endArrow=none;html=1;rounded=0;" edge="1" parent="1" source="qIVOGHb0BJN2lnLGOt8N-320" target="fLH93Ka3nVB979V-HaJ9-1">
          <mxGeometry relative="1" as="geometry">
            <mxPoint x="1180" y="790" as="sourcePoint" />
            <mxPoint x="1340" y="790" as="targetPoint" />
          </mxGeometry>
        </mxCell>
      </root>
    </mxGraphModel>
  </diagram>
</mxfile>
